# This file uses meters as units for non-parametric coordinates.

mtllib Murs_cellule_Coussin.mtl
g default
v 0.000017 96.062003 259.633606
v 0.000017 96.062003 -0.000061
v 0.000017 -0.000009 0.000000
v 0.000017 -0.000009 259.633606
vt 0.622638 0.000000
vt 0.992629 0.000000
vt 0.992629 1.000000
vt 0.622638 1.000000
vn -1.000000 -0.000000 0.000000
vn -1.000000 -0.000000 0.000000
vn -1.000000 -0.000000 0.000000
vn -1.000000 -0.000000 0.000000
s off
g polySurface271 polySurface266 Cellules1
usemtl surfaceShader1SG
f 2/1/1 3/2/2 4/3/3 1/4/4
