# This file uses meters as units for non-parametric coordinates.

mtllib Sol_cellule_porte.mtl
g default
v 0.000000 -4.339919 136.457947
v 0.000000 4.340502 136.457947
v 0.000000 4.340502 -136.457947
v 0.000000 -4.339919 -136.457947
v -82.001801 -4.339919 136.457947
v -91.000900 -4.339919 134.046631
v -97.588699 -4.339919 127.458801
v -100.000000 -4.339919 118.459717
v -100.000000 4.340502 118.459717
v -97.588699 4.340502 127.458862
v -91.000900 4.340502 134.046631
v -82.001801 4.340502 136.457947
v -91.000900 4.340502 -134.046631
v -97.588699 4.340502 -127.458801
v -100.000000 4.340502 -118.459717
v -82.001801 4.340502 -136.457947
v -100.000000 -4.339919 -118.459717
v -97.588699 -4.339919 -127.458801
v -91.000900 -4.339919 -134.046631
v -82.001801 -4.339919 -136.457947
v -91.591499 4.340380 -123.996338
v -87.538406 4.340380 -128.049438
v -93.310997 4.340380 -117.579102
v -93.310997 4.340380 117.579102
v -91.591507 4.340380 123.996399
v -87.538422 4.340380 128.049438
v -81.121170 4.340380 129.768921
v -6.688995 4.340380 129.768921
v -6.688995 4.340380 -129.768921
v -81.121170 4.340380 -129.768921
v -91.591499 0.443600 -123.996338
v -87.538406 0.443600 -128.049438
v -93.310997 0.443600 -117.579102
v -93.310997 0.443600 117.579102
v -91.591507 0.443600 123.996399
v -87.538422 0.443600 128.049438
v -81.121170 0.443600 129.768921
v -6.688995 0.443600 129.768921
v -6.688995 0.443600 -129.768921
v -81.121170 0.443600 -129.768921
vt 1.034094 0.999959
vt 1.034099 0.968293
vt 1.333238 0.968334
vt 1.333234 1.000000
vt -0.034094 0.968144
vt -0.034099 0.999810
vt -0.333238 0.999768
vt -0.333234 0.968102
vt 0.067861 0.999824
vt 0.067865 0.968158
vt 0.932139 0.968279
vt 0.932135 0.999945
vt 0.966126 0.968284
vt 0.966121 0.999950
vt 1.000112 0.968288
vt 1.000108 0.999954
vt 0.033874 0.999819
vt 0.033879 0.968154
vt -0.000112 0.999815
vt -0.000108 0.968149
vt 0.640487 0.866289
vt 0.644160 0.861892
vt 0.650378 0.859177
vt 0.894643 0.855260
vt 0.901000 0.857100
vt 0.905013 0.861317
vt 0.906956 0.867877
vt 0.900531 0.944851
vt 0.645827 0.944720
vt 0.639337 0.872792
vt 0.630652 0.862300
vt 0.637564 0.853468
vt 0.641861 0.859038
vt 0.637237 0.864806
vt 0.648006 0.848577
vt 0.649590 0.855317
vt 0.896039 0.844493
vt 0.895075 0.851325
vt 0.906526 0.848112
vt 0.902989 0.854180
vt 0.914300 0.856232
vt 0.908130 0.859542
vt 0.917549 0.867213
vt 0.910780 0.867658
vt 0.909053 0.955028
vt 0.902579 0.948076
vt 0.637631 0.954923
vt 0.643861 0.948053
vt 0.628652 0.872795
vt 0.635409 0.872810
vn -0.026488 0.000000 0.999649
vn -0.026488 0.000000 0.999649
vn 0.000000 0.000000 1.000000
vn 0.000000 0.000000 1.000000
vn -0.026488 0.000000 -0.999649
vn -0.026488 0.000000 -0.999649
vn 0.000000 0.000000 -1.000000
vn 0.000000 0.000000 -1.000000
vn -0.999952 0.000000 -0.009805
vn -0.999952 0.000000 -0.009805
vn -0.999952 0.000000 0.009805
vn -0.999952 0.000000 0.009805
vn -0.999952 0.000000 0.009805
vn -0.965926 -0.000001 0.258818
vn -0.965926 -0.000001 0.258818
vn -0.999952 0.000000 0.009805
vn -0.707106 -0.000003 0.707107
vn -0.500001 -0.000001 0.866025
vn -0.500001 -0.000001 0.866025
vn -0.707106 -0.000003 0.707107
vn -0.500001 -0.000001 0.866025
vn -0.026488 0.000000 0.999649
vn -0.026488 0.000000 0.999649
vn -0.500001 -0.000001 0.866025
vn -0.999952 0.000000 -0.009805
vn -0.866026 0.000000 -0.499999
vn -0.866026 0.000000 -0.499999
vn -0.999952 0.000000 -0.009805
vn -0.866026 0.000000 -0.499999
vn -0.707109 0.000000 -0.707105
vn -0.707109 0.000000 -0.707105
vn -0.866026 0.000000 -0.499999
vn -0.258821 0.000000 -0.965925
vn -0.026488 0.000000 -0.999649
vn -0.026488 0.000000 -0.999649
vn -0.258821 0.000000 -0.965925
vn 0.000000 1.000000 0.000000
vn 0.000000 1.000000 0.000000
vn 0.000000 1.000000 0.000000
vn 0.000000 1.000000 0.000000
vn 0.000000 1.000000 0.000000
vn 0.000000 1.000000 0.000000
vn 0.000000 1.000000 0.000000
vn 0.000000 1.000000 0.000000
vn 0.000000 1.000000 0.000000
vn 0.000000 1.000000 0.000000
vn 0.000009 1.000000 0.000015
vn 0.000015 1.000000 0.000009
vn 0.000015 1.000000 0.000009
vn 0.000009 1.000000 0.000015
vn 0.000015 1.000000 0.000009
vn 0.000018 1.000000 0.000000
vn 0.000018 1.000000 0.000000
vn 0.000015 1.000000 0.000009
vn 0.000018 1.000000 0.000000
vn 0.000018 1.000000 0.000000
vn 0.000018 1.000000 0.000000
vn 0.000018 1.000000 0.000000
vn 0.000018 1.000000 0.000000
vn 0.000015 1.000000 -0.000009
vn 0.000015 1.000000 -0.000009
vn 0.000018 1.000000 0.000000
vn 0.000015 1.000000 -0.000009
vn 0.000009 1.000000 -0.000015
vn 0.000009 1.000000 -0.000015
vn 0.000015 1.000000 -0.000009
vn 0.000009 1.000000 -0.000015
vn 0.000000 1.000000 -0.000018
vn 0.000000 1.000000 -0.000018
vn 0.000009 1.000000 -0.000015
vn 0.000000 1.000000 -0.000018
vn -0.000014 1.000000 -0.000004
vn -0.000014 1.000000 -0.000004
vn 0.000000 1.000000 -0.000018
vn -0.000014 1.000000 -0.000004
vn -0.000014 1.000000 0.000004
vn -0.000014 1.000000 0.000004
vn -0.000014 1.000000 -0.000004
vn -0.000014 1.000000 0.000004
vn 0.000000 1.000000 0.000018
vn 0.000000 1.000000 0.000018
vn -0.000014 1.000000 0.000004
vn 0.000000 1.000000 0.000018
vn 0.000009 1.000000 0.000015
vn 0.000009 1.000000 0.000015
vn 0.000000 1.000000 0.000018
vn 0.707107 0.000000 0.707106
vn 0.707107 0.000000 0.707106
vn 0.707107 0.000000 0.707106
vn 0.707107 0.000000 0.707106
vn 0.965926 0.000000 0.258820
vn 0.965926 0.000000 0.258820
vn 0.965926 0.000000 0.258820
vn 0.965926 0.000000 0.258820
vn 1.000000 0.000000 0.000000
vn 1.000000 0.000000 0.000000
vn 1.000000 0.000000 0.000000
vn 1.000000 0.000000 0.000000
vn 0.965927 0.000000 -0.258816
vn 0.965927 0.000000 -0.258816
vn 0.965927 0.000000 -0.258816
vn 0.965927 0.000000 -0.258816
vn 0.707103 0.000000 -0.707110
vn 0.707103 0.000000 -0.707110
vn 0.707103 0.000000 -0.707110
vn 0.707103 0.000000 -0.707110
vn 0.258817 0.000000 -0.965926
vn 0.258817 0.000000 -0.965926
vn 0.258817 0.000000 -0.965926
vn 0.258817 0.000000 -0.965926
vn 0.000000 0.000000 -1.000000
vn 0.000000 0.000000 -1.000000
vn 0.000000 0.000000 -1.000000
vn 0.000000 0.000000 -1.000000
vn -1.000000 0.000000 0.000000
vn -1.000000 0.000000 0.000000
vn -1.000000 0.000000 0.000000
vn -1.000000 0.000000 0.000000
vn 0.000000 0.000000 1.000000
vn 0.000000 0.000000 1.000000
vn 0.000000 0.000000 1.000000
vn 0.000000 0.000000 1.000000
vn 0.258817 0.000000 0.965926
vn 0.258817 0.000000 0.965926
vn 0.258817 0.000000 0.965926
vn 0.258817 0.000000 0.965926
s off
g Sol_cellule_portes
usemtl Sol_cellule_porte:initialShadingGroup
f 12/1/1 5/2/2 1/3/3 2/4/4
f 20/5/5 16/6/6 3/7/7 4/8/8
f 15/9/9 17/10/10 8/11/11 9/12/12
f 8/11/13 7/13/14 10/14/15 9/12/16
f 7/13/17 6/15/18 11/16/19 10/14/20
f 6/15/21 5/2/22 12/1/23 11/16/24
f 15/9/25 14/17/26 18/18/27 17/10/28
f 14/17/29 13/19/30 19/20/31 18/18/32
f 13/19/33 16/6/34 20/5/35 19/20/36
f 32/21/37 31/22/38 33/23/39 34/24/40 35/25/41 36/26/42 37/27/43 38/28/44 39/29/45 40/30/46
f 13/31/47 14/32/48 21/33/49 22/34/50
f 14/32/51 15/35/52 23/36/53 21/33/54
f 15/35/55 9/37/56 24/38/57 23/36/58
f 9/37/59 10/39/60 25/40/61 24/38/62
f 10/39/63 11/41/64 26/42/65 25/40/66
f 11/41/67 12/43/68 27/44/69 26/42/70
f 12/43/71 2/45/72 28/46/73 27/44/74
f 2/45/75 3/47/76 29/48/77 28/46/78
f 3/47/79 16/49/80 30/50/81 29/48/82
f 16/49/83 13/31/84 22/34/85 30/50/86
f 22/34/87 21/33/88 31/22/89 32/21/90
f 21/33/91 23/36/92 33/23/93 31/22/94
f 23/36/95 24/38/96 34/24/97 33/23/98
f 24/38/99 25/40/100 35/25/101 34/24/102
f 25/40/103 26/42/104 36/26/105 35/25/106
f 26/42/107 27/44/108 37/27/109 36/26/110
f 27/44/111 28/46/112 38/28/113 37/27/114
f 28/46/115 29/48/116 39/29/117 38/28/118
f 29/48/119 30/50/120 40/30/121 39/29/122
f 30/50/123 22/34/124 32/21/125 40/30/126
